<?xml version="1.0" encoding="utf-8"?><svg xmlns="http://www.w3.org/2000/svg" xmlns:xlink="http://www.w3.org/1999/xlink"><symbol viewBox="0 0 24 24" id="facebook" xmlns="http://www.w3.org/2000/svg"><path d="M15.997 3.985h2.191V.169C17.81.117 16.51 0 14.996 0c-3.159 0-5.323 1.987-5.323 5.639V9H6.187v4.266h3.486V24h4.274V13.267h3.345l.531-4.266h-3.877V6.062c.001-1.233.333-2.077 2.051-2.077z"/></symbol><symbol viewBox="0 0 25 26" id="google" xmlns="http://www.w3.org/2000/svg"><path d="M5.54 15.608l-.87 3.248-3.18.068A12.444 12.444 0 010 13c0-2.073.504-4.027 1.398-5.749l2.832.52 1.24 2.814A7.43 7.43 0 005.07 13c0 .918.166 1.797.47 2.608zm19.242-4.943a12.558 12.558 0 01-.055 4.945 12.497 12.497 0 01-4.401 7.138h-.001l-3.567-.183-.505-3.15a7.45 7.45 0 003.206-3.805h-6.684v-4.945h12.007z"/><path d="M20.325 22.747v.001A12.447 12.447 0 0112.5 25.5c-4.76 0-8.899-2.66-11.01-6.576l4.05-3.316a7.432 7.432 0 0010.713 3.806l4.072 3.333zm.154-19.369l-4.05 3.315A7.435 7.435 0 005.47 10.585L1.398 7.251A12.498 12.498 0 0112.5.5c3.033 0 5.814 1.08 7.979 2.878z"/></symbol><symbol viewBox="0 0 515.556 515.556" id="warning" xmlns="http://www.w3.org/2000/svg"><path d="M257.778 0C115.641 0 0 115.641 0 257.778s115.641 257.778 257.778 257.778 257.778-115.641 257.778-257.778S399.914 0 257.778 0zM290 386.667h-64.444v-64.444H290zm.002-96.667h-64.444V128.889h64.444z"/></symbol></svg>