<?xml version="1.0" encoding="utf-8"?><svg xmlns="http://www.w3.org/2000/svg" xmlns:xlink="http://www.w3.org/1999/xlink"><symbol viewBox="0 0 16 23" id="arrow-up" xmlns="http://www.w3.org/2000/svg"><path d="M6.916 21.117a1 1 0 102 0h-2zM8.623.41a1 1 0 00-1.414 0L.845 6.774a1 1 0 001.414 1.414l5.657-5.657 5.657 5.657a1 1 0 101.414-1.414L8.623.41zm.293 20.707v-20h-2v20h2z"/></symbol><symbol viewBox="0 0 25 26" id="bell" xmlns="http://www.w3.org/2000/svg"><path d="M6.958 23.385c.783 1.357 2.556 2.307 4.615 2.307 2.058 0 3.832-.95 4.615-2.307h-9.23zm16.388-2.307H.956c-.423 0-.811-.279-.9-.683-.086-.4.1-.794.48-.965.09-.057.767-.519 1.446-1.916 1.245-2.566 1.507-6.18 1.507-8.761 0-4.657 3.886-8.444 8.662-8.444 4.765 0 8.643 3.77 8.661 8.41l.001.034c0 2.58.262 6.195 1.507 8.76.679 1.398 1.356 1.86 1.446 1.917.38.17.567.565.48.965-.089.404-.477.683-.9.683zm.43-1.642z"/></symbol><symbol viewBox="0 0 9 6" id="chevron-down" xmlns="http://www.w3.org/2000/svg"><path d="M4.5 5.423L0 .577h9L4.5 5.423z"/></symbol><symbol viewBox="0 0 6 10" id="chevron-left" xmlns="http://www.w3.org/2000/svg"><path d="M.573 4.947l4.846-4.5v9l-4.846-4.5z"/></symbol><symbol viewBox="0 0 11 11" id="close" xmlns="http://www.w3.org/2000/svg"><path d="M10.68 9.407L9.446 10.64.68 1.872 1.912.64z"/><path d="M9.447.406l1.233 1.233-8.767 8.767L.68 9.173z"/></symbol><symbol viewBox="0 0 19 18" id="cog" xmlns="http://www.w3.org/2000/svg"><path d="M15.916 6.668l-.085-.03-.335-.799.036-.082c1.014-2.297.944-2.366.776-2.532l-1.352-1.318a.36.36 0 00-.236-.094c-.076 0-.306 0-2.302.904l-.08.036-.823-.332-.033-.081C10.543.016 10.447.016 10.214.016H8.305c-.232 0-.338 0-1.209 2.328l-.032.084-.82.334-.078-.032c-1.35-.57-2.14-.859-2.345-.859a.362.362 0 00-.236.092L2.232 3.285c-.171.17-.243.24.824 2.49l.039.084-.335.797-.082.032C.3 7.607.3 7.696.3 7.936v1.87c0 .24 0 .34 2.383 1.194l.085.03.335.795-.036.08c-1.013 2.3-.949 2.362-.777 2.533l1.35 1.32a.371.371 0 00.238.094c.075 0 .305 0 2.302-.904l.08-.037.824.333.032.082c.939 2.323 1.035 2.323 1.27 2.323h1.908c.24 0 .34 0 1.21-2.33l.033-.084.82-.332.078.032c1.35.571 2.138.86 2.342.86a.365.365 0 00.238-.093l1.355-1.325c.17-.17.241-.24-.827-2.487l-.04-.084.335-.794.08-.031C18.3 10.057 18.3 9.967 18.3 9.727V7.858c0-.24 0-.339-2.384-1.19zM9.3 11.865c-1.706 0-3.093-1.36-3.093-3.032S7.594 5.802 9.3 5.802c1.704 0 3.091 1.36 3.091 3.03 0 1.672-1.387 3.033-3.091 3.033z"/></symbol><symbol viewBox="0 0 8 25" id="exclamation" xmlns="http://www.w3.org/2000/svg"><path d="M5.078 16.197H2.1L1.477 4.27h4.224l-.623 11.926zm-3.65 4.175c0-.684.183-1.2.55-1.55.366-.35.899-.526 1.599-.526.675 0 1.196.18 1.562.538.375.358.562.87.562 1.538 0 .643-.187 1.151-.562 1.526-.374.366-.895.549-1.562.549-.684 0-1.213-.18-1.587-.537-.375-.366-.562-.88-.562-1.538z"/><path d="M5.078 16.197H2.1L1.477 4.27h4.224l-.623 11.926zm-3.65 4.175c0-.684.183-1.2.55-1.55.366-.35.899-.526 1.599-.526.675 0 1.196.18 1.562.538.375.358.562.87.562 1.538 0 .643-.187 1.151-.562 1.526-.374.366-.895.549-1.562.549-.684 0-1.213-.18-1.587-.537-.375-.366-.562-.88-.562-1.538z"/></symbol><symbol viewBox="0 0 24 24" id="facebook" xmlns="http://www.w3.org/2000/svg"><path d="M15.997 3.985h2.191V.169C17.81.117 16.51 0 14.996 0c-3.159 0-5.323 1.987-5.323 5.639V9H6.187v4.266h3.486V24h4.274V13.267h3.345l.531-4.266h-3.877V6.062c.001-1.233.333-2.077 2.051-2.077z"/></symbol><symbol viewBox="0 0 25 26" id="google" xmlns="http://www.w3.org/2000/svg"><path d="M5.54 15.608l-.87 3.248-3.18.068A12.444 12.444 0 010 13c0-2.073.504-4.027 1.398-5.749l2.832.52 1.24 2.814A7.43 7.43 0 005.07 13c0 .918.166 1.797.47 2.608zm19.242-4.943a12.558 12.558 0 01-.055 4.945 12.497 12.497 0 01-4.401 7.138h-.001l-3.567-.183-.505-3.15a7.45 7.45 0 003.206-3.805h-6.684v-4.945h12.007z"/><path d="M20.325 22.747v.001A12.447 12.447 0 0112.5 25.5c-4.76 0-8.899-2.66-11.01-6.576l4.05-3.316a7.432 7.432 0 0010.713 3.806l4.072 3.333zm.154-19.369l-4.05 3.315A7.435 7.435 0 005.47 10.585L1.398 7.251A12.498 12.498 0 0112.5.5c3.033 0 5.814 1.08 7.979 2.878z"/></symbol><symbol viewBox="0 0 19 16" id="log-out" xmlns="http://www.w3.org/2000/svg"><path d="M7.647 13.955a.299.299 0 01-.024-.155c.008-.042-.019-.077-.08-.103-.061-.027-.092-.048-.092-.063 0-.016-.044-.027-.132-.035l-.132-.011H3.606a1.77 1.77 0 01-1.298-.54c-.36-.36-.54-.792-.54-1.297V3.669c0-.505.18-.937.54-1.297.36-.36.793-.54 1.298-.54h3.673c.1 0 .178-.024.235-.074a.381.381 0 00.115-.224A1.933 1.933 0 007.658.96a5.278 5.278 0 01-.012-.23.352.352 0 00-.109-.258.354.354 0 00-.257-.109H3.606c-.911 0-1.69.324-2.336.97A3.184 3.184 0 00.3 3.67v8.082c0 .91.323 1.69.97 2.336.646.647 1.425.97 2.336.97h3.673c.1 0 .178-.025.236-.074a.382.382 0 00.114-.224 1.937 1.937 0 00.029-.574 5.167 5.167 0 01-.011-.23z"/><path d="M18.081 7.194L11.836.949A.706.706 0 0011.32.73a.707.707 0 00-.517.219.706.706 0 00-.218.516v3.306H5.442c-.2 0-.371.073-.517.218a.706.706 0 00-.218.517v4.408c0 .2.073.372.218.517a.707.707 0 00.517.218h5.143v3.306c0 .2.073.371.218.517a.706.706 0 00.517.218.706.706 0 00.516-.218l6.245-6.245a.706.706 0 00.218-.517.707.707 0 00-.218-.516z"/></symbol><symbol viewBox="0 0 15 3" id="minus" xmlns="http://www.w3.org/2000/svg"><path d="M14.116.743v2h-14v-2z"/></symbol><symbol viewBox="0 0 15 15" id="plus" xmlns="http://www.w3.org/2000/svg"><path d="M6.116.406h2v14h-2z"/><path d="M14.116 6.406v2h-14v-2z"/></symbol><symbol viewBox="0 0 515.556 515.556" id="warning" xmlns="http://www.w3.org/2000/svg"><path d="M257.778 0C115.641 0 0 115.641 0 257.778s115.641 257.778 257.778 257.778 257.778-115.641 257.778-257.778S399.914 0 257.778 0zM290 386.667h-64.444v-64.444H290zm.002-96.667h-64.444V128.889h64.444z"/></symbol></svg>