<svg width="17" height="17" viewBox="0 0 17 17" fill="none" xmlns="http://www.w3.org/2000/svg">
<path d="M15.7285 8.65189C15.7285 12.6557 12.4826 15.9014 8.47852 15.9014C4.47441 15.9014 1.22852 12.6557 1.22852 8.65189C1.22852 4.64811 4.47441 1.40234 8.47852 1.40234C12.4826 1.40234 15.7285 4.64811 15.7285 8.65189Z" fill="white" stroke="#3F88C5" stroke-width="1.5"/>
<path d="M8.59307 3.85254C8.59307 3.43833 8.25729 3.10254 7.84307 3.10254C7.42886 3.10254 7.09307 3.43832 7.09307 3.85254L8.59307 3.85254ZM7.84307 8.65226L7.09307 8.65226L7.09307 8.94493L7.2913 9.16025L7.84307 8.65226ZM10.6055 12.76C10.886 13.0648 11.3605 13.0844 11.6652 12.8038C11.9699 12.5233 11.9895 12.0488 11.709 11.7441L10.6055 12.76ZM7.09307 3.85254L7.09307 8.65226L8.59307 8.65226L8.59307 3.85254L7.09307 3.85254ZM7.2913 9.16025L10.6055 12.76L11.709 11.7441L8.39484 8.14428L7.2913 9.16025Z" fill="#3F88C5"/>
</svg>
