<svg width="25" height="25" viewBox="0 0 25 25" fill="none" xmlns="http://www.w3.org/2000/svg">
<circle cx="12.3417" cy="12.7573" r="12.1557" fill="#CC2936"/>
<path d="M13.0405 14.8848H11.6812L11.2749 6.93164H13.439L13.0405 14.8848ZM11.1812 17.377C11.1812 16.9915 11.2827 16.6999 11.4858 16.502C11.689 16.2988 11.978 16.1973 12.353 16.1973C12.7228 16.1973 13.0067 16.3014 13.2046 16.5098C13.4025 16.7181 13.5015 17.0072 13.5015 17.377C13.5015 17.7467 13.3999 18.041 13.1968 18.2598C12.9989 18.4733 12.7176 18.5801 12.353 18.5801C11.9832 18.5801 11.6942 18.4759 11.4858 18.2676C11.2827 18.0592 11.1812 17.7624 11.1812 17.377Z" fill="white"/>
</svg>
